<svg id="visual" viewBox="0 0 900 600" width="900" height="600" xmlns="http://www.w3.org/2000/svg" xmlns:xlink="http://www.w3.org/1999/xlink" version="1.1"><rect x="0" y="0" width="900" height="600" fill="#d1cebd"></rect><defs><linearGradient id="grad1_0" x1="33.3%" y1="0%" x2="100%" y2="100%"><stop offset="20%" stop-color="#d1cebd" stop-opacity="1"></stop><stop offset="80%" stop-color="#d1cebd" stop-opacity="1"></stop></linearGradient></defs><defs><linearGradient id="grad2_0" x1="0%" y1="0%" x2="66.7%" y2="100%"><stop offset="20%" stop-color="#d1cebd" stop-opacity="1"></stop><stop offset="80%" stop-color="#d1cebd" stop-opacity="1"></stop></linearGradient></defs><g transform="translate(900, 0)"><path d="M0 324.5C-41.8 319.6 -83.7 314.7 -124.2 299.8C-164.7 284.9 -203.9 260 -226.3 226.3C-248.7 192.6 -254.3 150.1 -267.9 111C-281.5 71.8 -303 35.9 -324.5 0L0 0Z" fill="#D63447"></path></g><g transform="translate(0, 600)"><path d="M0 -324.5C46 -323.9 92 -323.4 124.2 -299.8C156.3 -276.2 174.6 -229.6 195.2 -195.2C215.7 -160.7 238.6 -138.4 260.5 -107.9C282.5 -77.4 303.5 -38.7 324.5 0L0 0Z" fill="#D63447"></path></g></svg>