<svg id="visual" viewBox="0 0 900 600" width="900" height="600" xmlns="http://www.w3.org/2000/svg" xmlns:xlink="http://www.w3.org/1999/xlink" version="1.1"><rect x="0" y="0" width="900" height="600" fill="#d1cebd"></rect><path d="M317 0L307.5 33.3C298 66.7 279 133.3 278.8 200C278.7 266.7 297.3 333.3 304.3 400C311.3 466.7 306.7 533.3 304.3 566.7L302 600L0 600L0 566.7C0 533.3 0 466.7 0 400C0 333.3 0 266.7 0 200C0 133.3 0 66.7 0 33.3L0 0Z" fill="#d63447"></path><path d="M191 0L199.7 33.3C208.3 66.7 225.7 133.3 226 200C226.3 266.7 209.7 333.3 216.2 400C222.7 466.7 252.3 533.3 267.2 566.7L282 600L0 600L0 566.7C0 533.3 0 466.7 0 400C0 333.3 0 266.7 0 200C0 133.3 0 66.7 0 33.3L0 0Z" fill="#d63447"></path><path d="M180 0L176.2 33.3C172.3 66.7 164.7 133.3 174 200C183.3 266.7 209.7 333.3 218.2 400C226.7 466.7 217.3 533.3 212.7 566.7L208 600L0 600L0 566.7C0 533.3 0 466.7 0 400C0 333.3 0 266.7 0 200C0 133.3 0 66.7 0 33.3L0 0Z" fill="#d63447"></path><path d="M172 0L176.2 33.3C180.3 66.7 188.7 133.3 189 200C189.3 266.7 181.7 333.3 174.8 400C168 466.7 162 533.3 159 566.7L156 600L0 600L0 566.7C0 533.3 0 466.7 0 400C0 333.3 0 266.7 0 200C0 133.3 0 66.7 0 33.3L0 0Z" fill="#d63447"></path><path d="M135 0L132.2 33.3C129.3 66.7 123.7 133.3 117.5 200C111.3 266.7 104.7 333.3 106 400C107.3 466.7 116.7 533.3 121.3 566.7L126 600L0 600L0 566.7C0 533.3 0 466.7 0 400C0 333.3 0 266.7 0 200C0 133.3 0 66.7 0 33.3L0 0Z" fill="#d63447"></path><path d="M106 0L97.5 33.3C89 66.7 72 133.3 73.2 200C74.3 266.7 93.7 333.3 101.2 400C108.7 466.7 104.3 533.3 102.2 566.7L100 600L0 600L0 566.7C0 533.3 0 466.7 0 400C0 333.3 0 266.7 0 200C0 133.3 0 66.7 0 33.3L0 0Z" fill="#d63447"></path><path d="M68 0L61.7 33.3C55.3 66.7 42.7 133.3 39.8 200C37 266.7 44 333.3 47.5 400C51 466.7 51 533.3 51 566.7L51 600L0 600L0 566.7C0 533.3 0 466.7 0 400C0 333.3 0 266.7 0 200C0 133.3 0 66.7 0 33.3L0 0Z" fill="#d63447"></path></svg>