<svg id="visual" viewBox="0 0 900 600" width="900" height="600" xmlns="http://www.w3.org/2000/svg" xmlns:xlink="http://www.w3.org/1999/xlink" version="1.1"><rect x="0" y="0" width="900" height="600" fill="#d1cebd"></rect><defs><linearGradient id="grad1_0" x1="33.3%" y1="100%" x2="100%" y2="0%"><stop offset="20%" stop-color="#d1cebd" stop-opacity="1"></stop><stop offset="80%" stop-color="#d1cebd" stop-opacity="1"></stop></linearGradient></defs><defs><linearGradient id="grad2_0" x1="0%" y1="100%" x2="66.7%" y2="0%"><stop offset="20%" stop-color="#d1cebd" stop-opacity="1"></stop><stop offset="80%" stop-color="#d1cebd" stop-opacity="1"></stop></linearGradient></defs><g transform="translate(900, 600)"><path d="M-324.5 0C-323.5 -45.6 -322.4 -91.2 -299.8 -124.2C-277.2 -157.2 -233 -177.7 -198.7 -198.7C-164.4 -219.7 -140.1 -241.3 -108.7 -262.4C-77.2 -283.4 -38.6 -304 0 -324.5L0 0Z" fill="#D63447"></path></g><g transform="translate(0, 0)"><path d="M324.5 0C323.1 45.7 321.6 91.5 299.8 124.2C278 156.9 235.8 176.6 204.4 204.4C172.9 232.1 152.1 267.8 119.8 289.2C87.5 310.5 43.7 317.5 0 324.5L0 0Z" fill="#D63447"></path></g></svg>