<svg id="visual" viewBox="0 0 900 600" width="900" height="600" xmlns="http://www.w3.org/2000/svg" xmlns:xlink="http://www.w3.org/1999/xlink" version="1.1"><rect x="0" y="0" width="900" height="600" fill="#d1cebd"></rect><path d="M301 0L300.2 33.3C299.3 66.7 297.7 133.3 309.7 200C321.7 266.7 347.3 333.3 346.8 400C346.3 466.7 319.7 533.3 306.3 566.7L293 600L0 600L0 566.7C0 533.3 0 466.7 0 400C0 333.3 0 266.7 0 200C0 133.3 0 66.7 0 33.3L0 0Z" fill="#d63447"></path><path d="M213 0L221 33.3C229 66.7 245 133.3 247.5 200C250 266.7 239 333.3 231 400C223 466.7 218 533.3 215.5 566.7L213 600L0 600L0 566.7C0 533.3 0 466.7 0 400C0 333.3 0 266.7 0 200C0 133.3 0 66.7 0 33.3L0 0Z" fill="#d63447"></path><path d="M197 0L190.7 33.3C184.3 66.7 171.7 133.3 176.2 200C180.7 266.7 202.3 333.3 199.3 400C196.3 466.7 168.7 533.3 154.8 566.7L141 600L0 600L0 566.7C0 533.3 0 466.7 0 400C0 333.3 0 266.7 0 200C0 133.3 0 66.7 0 33.3L0 0Z" fill="#d63447"></path><path d="M152 0L150.5 33.3C149 66.7 146 133.3 142.8 200C139.7 266.7 136.3 333.3 143.5 400C150.7 466.7 168.3 533.3 177.2 566.7L186 600L0 600L0 566.7C0 533.3 0 466.7 0 400C0 333.3 0 266.7 0 200C0 133.3 0 66.7 0 33.3L0 0Z" fill="#d63447"></path><path d="M90 0L81.7 33.3C73.3 66.7 56.7 133.3 55.5 200C54.3 266.7 68.7 333.3 74.2 400C79.7 466.7 76.3 533.3 74.7 566.7L73 600L0 600L0 566.7C0 533.3 0 466.7 0 400C0 333.3 0 266.7 0 200C0 133.3 0 66.7 0 33.3L0 0Z" fill="#d63447"></path></svg>