<svg id="visual" viewBox="0 0 900 600" width="900" height="600" xmlns="http://www.w3.org/2000/svg" xmlns:xlink="http://www.w3.org/1999/xlink" version="1.1"><rect x="0" y="0" width="900" height="600" fill="#d1cebd"></rect><path d="M0 326L50 333.3C100 340.7 200 355.3 300 357.8C400 360.3 500 350.7 600 342.7C700 334.7 800 328.3 850 325.2L900 322L900 0L850 0C800 0 700 0 600 0C500 0 400 0 300 0C200 0 100 0 50 0L0 0Z" fill="#d63447"></path><path d="M0 327L50 324.5C100 322 200 317 300 306.2C400 295.3 500 278.7 600 270.8C700 263 800 264 850 264.5L900 265L900 0L850 0C800 0 700 0 600 0C500 0 400 0 300 0C200 0 100 0 50 0L0 0Z" fill="#d63447"></path><path d="M0 254L50 253C100 252 200 250 300 238.8C400 227.7 500 207.3 600 209.2C700 211 800 235 850 247L900 259L900 0L850 0C800 0 700 0 600 0C500 0 400 0 300 0C200 0 100 0 50 0L0 0Z" fill="#d63447"></path><path d="M0 213L50 208C100 203 200 193 300 194C400 195 500 207 600 203.5C700 200 800 181 850 171.5L900 162L900 0L850 0C800 0 700 0 600 0C500 0 400 0 300 0C200 0 100 0 50 0L0 0Z" fill="#d63447"></path><path d="M0 130L50 125.7C100 121.3 200 112.7 300 116C400 119.3 500 134.7 600 134.7C700 134.7 800 119.3 850 111.7L900 104L900 0L850 0C800 0 700 0 600 0C500 0 400 0 300 0C200 0 100 0 50 0L0 0Z" fill="#d63447"></path><path d="M0 70L50 74.5C100 79 200 88 300 90.3C400 92.7 500 88.3 600 84.5C700 80.7 800 77.3 850 75.7L900 74L900 0L850 0C800 0 700 0 600 0C500 0 400 0 300 0C200 0 100 0 50 0L0 0Z" fill="#d63447"></path><path d="M0 34L50 38.7C100 43.3 200 52.7 300 60.8C400 69 500 76 600 72.7C700 69.3 800 55.7 850 48.8L900 42L900 0L850 0C800 0 700 0 600 0C500 0 400 0 300 0C200 0 100 0 50 0L0 0Z" fill="#d63447"></path></svg>