<svg id="visual" viewBox="0 0 900 600" width="900" height="600" xmlns="http://www.w3.org/2000/svg" xmlns:xlink="http://www.w3.org/1999/xlink" version="1.1"><rect x="0" y="0" width="900" height="600" fill="#fff"></rect><defs><linearGradient id="grad1_0" x1="33.3%" y1="100%" x2="100%" y2="0%"><stop offset="20%" stop-color="#ffffff" stop-opacity="1"></stop><stop offset="80%" stop-color="#ffffff" stop-opacity="1"></stop></linearGradient></defs><defs><linearGradient id="grad2_0" x1="0%" y1="100%" x2="66.7%" y2="0%"><stop offset="20%" stop-color="#ffffff" stop-opacity="1"></stop><stop offset="80%" stop-color="#ffffff" stop-opacity="1"></stop></linearGradient></defs><g transform="translate(900, 600)"><path d="M-270.4 0C-260.8 -32.4 -251.3 -64.9 -240.2 -99.5C-229.2 -134.1 -216.7 -171 -191.2 -191.2C-165.8 -211.4 -127.4 -215 -93.4 -225.4C-59.4 -235.9 -29.7 -253.1 0 -270.4L0 0Z" fill="#ED2B2A"></path></g><g transform="translate(0, 0)"><path d="M270.4 0C267.7 36.1 264.9 72.2 249.8 103.5C234.7 134.7 207.3 161.1 178.9 178.9C150.5 196.7 121.1 206 91.1 219.9C61.1 233.7 30.5 252.1 0 270.4L0 0Z" fill="#ED2B2A"></path></g></svg>