<svg id="visual" viewBox="0 0 900 600" width="900" height="600" xmlns="http://www.w3.org/2000/svg" xmlns:xlink="http://www.w3.org/1999/xlink" version="1.1"><rect x="0" y="0" width="900" height="600" fill="#fff"></rect><defs><linearGradient id="grad1_0" x1="33.3%" y1="100%" x2="100%" y2="0%"><stop offset="20%" stop-color="#ffffff" stop-opacity="1"></stop><stop offset="80%" stop-color="#ffffff" stop-opacity="1"></stop></linearGradient></defs><defs><linearGradient id="grad2_0" x1="0%" y1="100%" x2="66.7%" y2="0%"><stop offset="20%" stop-color="#ffffff" stop-opacity="1"></stop><stop offset="80%" stop-color="#ffffff" stop-opacity="1"></stop></linearGradient></defs><g transform="translate(900, 600)"><path d="M-351.5 0C-333 -55.8 -314.5 -111.5 -287.5 -166C-260.5 -220.5 -225.1 -273.7 -175.8 -304.4C-126.4 -335.2 -63.2 -343.3 0 -351.5L0 0Z" fill="#016A70"></path></g><g transform="translate(0, 0)"><path d="M351.5 0C321.9 49.4 292.3 98.7 266.7 154C241.1 209.3 219.6 270.5 175.8 304.4C132 338.4 66 344.9 0 351.5L0 0Z" fill="#016A70"></path></g></svg>