<svg id="visual" viewBox="0 0 900 600" width="900" height="600" xmlns="http://www.w3.org/2000/svg" xmlns:xlink="http://www.w3.org/1999/xlink" version="1.1"><rect x="0" y="0" width="900" height="600" fill="#f6eedf"></rect><path d="M0 258L21.5 270.8C43 283.7 86 309.3 128.8 314.5C171.7 319.7 214.3 304.3 257.2 301C300 297.7 343 306.3 385.8 299.3C428.7 292.3 471.3 269.7 514.2 275.7C557 281.7 600 316.3 642.8 331.8C685.7 347.3 728.3 343.7 771.2 328C814 312.3 857 284.7 878.5 270.8L900 257L900 601L878.5 601C857 601 814 601 771.2 601C728.3 601 685.7 601 642.8 601C600 601 557 601 514.2 601C471.3 601 428.7 601 385.8 601C343 601 300 601 257.2 601C214.3 601 171.7 601 128.8 601C86 601 43 601 21.5 601L0 601Z" fill="#d63447" stroke-linecap="round" stroke-linejoin="miter"></path></svg>